<svg xmlns="http://www.w3.org/2000/svg" width="500" height="500" viewBox="0 0 500 500"><title>RoboCondo_Logo</title><rect width="500" height="500" style="fill:#2b6f92"/><path d="M210.44,444.08a73.77,73.77,0,0,1-9-2.68c-7.49-3.08-5.62-11.37,2.14-10.17,17.4,2.95,26.09,3.48,49.24,3.61,25,0,26.5.14,27.84,2.68a4.86,4.86,0,0,1,0,5.35c-1.34,2.55-2.68,2.68-33.19,2.55C230.12,445.28,213.39,444.75,210.44,444.08Z" style="fill:#fff"/><path d="M312.05,428.29c-3.21-3.08-26-4.55-83.64-5.35-52.72-.81-61.55-1.21-65.84-3.08-3.88-1.74-5.08-3.08-5.08-5.49,0-5.35,3.08-7,9.5-5.08,3.61,1.07,21.28,1.87,53.12,2.27,85,.94,100.64,2.81,100.64,11.64C320.75,428.42,315.26,431.5,312.05,428.29Z" style="fill:#fff"/><path d="M312,405.54c-3.62-3.48-20.08-4.55-81.63-5.35-53-.67-64.9-1.21-68.25-2.81-4.28-2.15-5.89-6.83-3.08-8.84,2.28-1.74,122.45,0,138.1,2,15.12,2,23.55,5.49,23.55,9.77C320.64,405.67,315.29,408.75,312,405.54Z" style="fill:#fff"/><path d="M311.46,383.73c-2.54-3.48-12.31-5.76-35.33-7.9-18.87-1.74-98.89-.8-108.66,1.34-5.08,1.07-6.42.94-8.56-1.2-3.61-3.48-1.74-7.63,4.28-9.37,15.52-4.42,93.54-4.82,124.05-.81,26.76,3.62,33.05,6.16,33.86,13.52C321.9,386,315.07,389.08,311.46,383.73Z" style="fill:#fff"/><path d="M310.88,360.78c-7.76-7.23-38.8-10.84-85-9.77-34.39.67-56.47,3.34-60.49,7-3.07,2.81-4.95,2.54-7.36-1.21-4.95-7.63,2.28-11.37,28.78-15,13.78-1.87,25.69-2.54,50.85-2.4,49.64.26,76.14,4.95,82.43,14.58,2,3.08,2,3.62,0,6.69C317.31,364.79,315.3,364.79,310.88,360.78Z" style="fill:#fff"/><path d="M312.21,339.17c-2.54-7-24.75-11.25-62.76-12.32-41.48-1.07-75.07,3.08-82.7,10.17-4.95,4.55-10.17,3-10.17-3.34,0-7.09,11.25-12,36.14-16.06,19.8-3.08,73.06-3.21,91.66,0,28.64,4.82,40.15,11.24,36.67,20.61C319.71,341.71,313.55,342.38,312.21,339.17Z" style="fill:#fff"/><path d="M321.07,315.75c-1.07,5.22-7.5,5.22-10.17,0-4.15-8.17-29.71-12.45-72.93-12.58-20.21,0-30.78.67-40.15,2.41-16.86,2.94-29.17,7.09-30.78,10.3a5.62,5.62,0,0,1-7.79,1.58,5.79,5.79,0,0,1-1.58-1.58c-2-3.75.27-8.7,5.62-11.91,12.05-7.22,33.19-11,66.78-11.91,58.48-1.6,94.34,7.63,91,23.69" style="fill:#fff"/><path d="M158.1,296.75c-3.34-3.35-.4-12.32,5.35-16.06,5.49-3.62,17.53-7.36,31.18-9.91,18.87-3.47,69.32-3.61,87.52-.13,24.35,4.68,37.74,11.11,39.21,18.87,1.47,7.49-6.29,10.44-10.57,4-2.81-4.41-10.17-7.62-24.63-10.84-16.59-3.61-78.28-3.61-94.87.14-14.32,3.08-22.22,6.82-24.49,11.37C164.93,298.08,160.78,299.42,158.1,296.75Z" style="fill:#fff"/><path d="M158.18,272.66c-2.54-2.54-1.88-7.23,1.74-11.64,7.22-8.43,26.09-14.19,58.74-17.53,39.75-4.15,91.94,5.08,100.1,17.66,2.94,4.68,3.61,8.7,1.87,11.11-2.14,3.07-7.89,2-9.5-1.61-4.55-10.57-39.88-17.4-82.7-16.06-33.85,1.07-56.47,7.09-60.88,16.06a5.8,5.8,0,0,1-7.56,3.18A5.69,5.69,0,0,1,158.18,272.66Z" style="fill:#fff"/><path d="M196.5,237.66c-4.42-5.48,2.67-12.71,15.12-15.52,18.47-4.15,51.25-2.67,63.43,2.68,6.69,2.94,9.5,7.63,7.23,11.91-1.88,3.34-7.5,3.74-9.24.67-2-3.75-14.32-5.89-33.32-5.89-19.67,0-30.51,1.74-34.66,5.49C201.85,240,198.77,240.14,196.5,237.66Z" style="fill:#fff"/><path d="M196.67,217.79c-2.67-2.67-1.87-7.62,1.88-11.1,10.17-9.37,46.3-12.58,68.91-6,11,3.08,18.6,11.78,14.59,16.6-2.41,3.08-7.36,2.54-9.77-.94-2.94-4.42-10.3-6.42-28-7.23-21.54-1.07-37.47,2.15-39.21,7.9C204.17,219.8,199.08,220.27,196.67,217.79Z" style="fill:#fff"/><path d="M196.76,197.72c-4.15-4.15.13-12.58,9-17,8.3-4.29,20.08-5.89,38.54-5.22,24.09.93,36,5.88,38.54,15.92a5.83,5.83,0,0,1-1.33,5.75c-3.22,3.08-4.69,2.68-9.37-2.4-5-5.49-11-7.36-26.77-8.43-20.07-1.21-37.33,2.67-40.14,9.36C203.72,199.06,199.3,200.26,196.76,197.72Z" style="fill:#fff"/><path d="M211.56,168.68c-4-7.49,6.42-14.58,23.15-15.79,19-1.47,33.72,4.55,32.78,13.52-.53,5.22-5.22,6.42-9.5,2.41-4.15-3.75-7.76-4.55-19.8-4.55-10.31.13-15.53,1.6-17.67,5.08C218.92,172.16,213.16,171.63,211.56,168.68Z" style="fill:#fff"/><path d="M213,149.55c-2.28-2.28-2-6.56.53-10.17,5.22-7.63,22.88-11.65,36.53-8.3,11.38,2.68,19.41,11.37,16.06,17.53-1.87,3.61-8.16,2.94-9.9-1.07s-7.76-6.22-16.73-6.42-15.92,2.67-17.53,6.95C220.71,151.42,215.76,152.36,213,149.55Z" style="fill:#fff"/><path d="M214.9,129.61c-6.83-3.88,1.07-17.13,12.18-20.48l6.15-1.74.4-26c.27-21.74.67-26.23,2.41-27.56a5.54,5.54,0,0,1,7.5,1.47c.53.8,1.07,12.84,1.07,26.63,0,22.75.26,25.16,2.41,25.82,7.49,2.28,13.91,6.43,16.32,10.17,3.21,5.36,3.35,8.17.54,11-3.21,3.21-5.76,2.54-8.57-2.28-3.48-5.75-7.62-7.62-17.26-7.62-8.16,0-14.85,3.34-14.85,7.36a5,5,0,0,1-2.55,3.34C217.58,131.35,217.71,131.35,214.9,129.61Z" style="fill:#fff"/></svg>