<svg xmlns="http://www.w3.org/2000/svg" viewBox="0 0 923.5 293.28"><defs><style>.cls-1{fill:#fff;}</style></defs><title>Asset 1</title><g id="Layer_2" data-name="Layer 2"><g id="Layer_1-2" data-name="Layer 1"><g id="layer102"><path class="cls-1" d="M10.5,292.25a54.84,54.84,0,0,1-6.7-2c-5.6-2.3-4.2-8.5,1.6-7.6,13,2.2,19.5,2.6,36.8,2.7,18.7,0,19.8.1,20.8,2a3.63,3.63,0,0,1,0,4c-1,1.9-2,2-24.8,1.9C25.2,293.15,12.7,292.75,10.5,292.25Z"/><path class="cls-1" d="M116.5,280.45c-2.4-2.3-19.4-3.4-62.5-4-39.4-.6-46-.9-49.2-2.3-2.9-1.3-3.8-2.3-3.8-4.1,0-4,2.3-5.2,7.1-3.8,2.7.8,15.9,1.4,39.7,1.7,63.5.7,75.2,2.1,75.2,8.7C123,280.55,118.9,282.85,116.5,280.45Z"/><path class="cls-1" d="M116.5,263.45c-2.7-2.6-15-3.4-61-4-39.6-.5-48.5-.9-51-2.1-3.2-1.6-4.4-5.1-2.3-6.6,1.7-1.3,91.5,0,103.2,1.5,11.3,1.5,17.6,4.1,17.6,7.3C123,263.55,119,265.85,116.5,263.45Z"/><path class="cls-1" d="M115.6,247.15c-1.9-2.6-9.2-4.3-26.4-5.9-14.1-1.3-73.9-.6-81.2,1-3.8.8-4.8.7-6.4-.9-2.7-2.6-1.3-5.7,3.2-7,11.6-3.3,69.9-3.6,92.7-.6,20,2.7,24.7,4.6,25.3,10.1C123.4,248.85,118.3,251.15,115.6,247.15Z"/><path class="cls-1" d="M115.7,230c-5.8-5.4-29-8.1-63.5-7.3-25.7.5-42.2,2.5-45.2,5.2-2.3,2.1-3.7,1.9-5.5-.9-3.7-5.7,1.7-8.5,21.5-11.2,10.3-1.4,19.2-1.9,38-1.8,37.1.2,56.9,3.7,61.6,10.9,1.5,2.3,1.5,2.7,0,5C120.5,233,119,233,115.7,230Z"/><path class="cls-1" d="M116.3,213.85c-1.9-5.2-18.5-8.4-46.9-9.2-31-.8-56.1,2.3-61.8,7.6-3.7,3.4-7.6,2.2-7.6-2.5,0-5.3,8.4-9,27-12,14.8-2.3,54.6-2.4,68.5,0,21.4,3.6,30,8.4,27.4,15.4C121.9,215.75,117.3,216.25,116.3,213.85Z"/><path class="cls-1" d="M115.5,196.35c-3.1-6.1-22.2-9.3-54.5-9.4-15.1,0-23,.5-30,1.8-12.6,2.2-21.8,5.3-23,7.7a4.2,4.2,0,0,1-7,0c-1.5-2.8.2-6.5,4.2-8.9,9-5.4,24.8-8.2,49.9-8.9,43.7-1.2,70.5,5.7,68,17.7C122.3,200.25,117.5,200.25,115.5,196.35Z"/><path class="cls-1" d="M270.5,196a39.3,39.3,0,0,1-26.2-21.2c-4.9-10.9-4-26.6,2.2-36.3,5.7-9.1,17.1-16.2,28.2-17.7,5.3-.6,16.3,1.5,21.5,4.2,5.9,3,13.4,11.2,16.4,17.7,2.6,5.5,2.9,7.3,2.9,16.2s-.3,10.7-2.9,16.2c-4.7,10.4-13.9,17.6-26.3,20.8C279.6,197.55,277.3,197.65,270.5,196Zm19.7-12.6c5.7-2.8,8.8-6,12-12,3.5-6.7,3.3-18.5-.4-25.6-4.5-8.6-11.5-13.3-20.8-14.1-10.9-1-20.1,4-25.5,13.8-2.5,4.6-2.9,6.5-3,12.9,0,10.4,3,17.2,10.1,22.6A26.41,26.41,0,0,0,290.2,183.35Z"/><path class="cls-1" d="M362.4,196.35c-7.2-1.1-14.4-4.9-18.1-9.9l-3.3-4.3v13.2H329v-100h12v39l4-4.4c11.2-12.1,31.1-12.3,46.1-.5,13.9,10.9,17,35,6.7,51.2C390.7,191.85,376,198.25,362.4,196.35Zm14.2-11.9a29.38,29.38,0,0,0,13.6-12.9c1.8-3.7,2.3-6.4,2.3-12.7,0-7-.4-8.7-3-13.4-5.1-9.2-13.4-14.1-23.9-14.1-9.3,0-19.6,6.9-23.1,15.4-5.7,13.8-.4,30.7,11.4,36.8C360.5,187.05,370.1,187.35,376.6,184.45Z"/><path class="cls-1" d="M445,196.25c-12.3-2.4-24-11.8-28-22.6-8.9-23.9,4-47.5,28.8-52.3,15.4-3.1,32.5,5.8,39.7,20.5,2.5,5,3,7.4,3.3,15.5.3,7.9,0,10.5-1.8,15.2-4.2,11.3-16,21-28.8,23.7C452.3,197.45,451.3,197.45,445,196.25Zm18.5-12.7a30.24,30.24,0,0,0,12.1-12.2c2.6-4.9,2.7-20.1.1-24.7-5.1-9.4-14.1-15.3-23.3-15.3-15.6,0-26.6,11.3-26.6,27.3,0,13.2,5.8,22,17.7,26.5C448,186.85,458.8,186.05,463.5,183.55Z"/><path class="cls-1" d="M544.9,196.35c-14.5-1.8-30.9-13-37.8-25.9a50.81,50.81,0,0,1,7.2-58.8c16.4-18,44.9-21.5,65.1-8.2l4.7,3.1-2.4,3.1c-3.8,4.9-5.1,5.3-8.2,2.9-3.7-2.9-14.5-6.2-20.4-6.2-15.4,0-30.4,9.7-36.9,23.8-2.2,4.9-2.6,7.1-2.7,15.7,0,9.3.2,10.5,3.3,17a41.13,41.13,0,0,0,19,19.2c5.2,2.5,6.7,2.8,16.3,2.8,10.3,0,10.9-.1,18-3.8l7.3-3.7,3.5,3.4c4.1,4.1,3.7,5-4.4,9.6C567.7,195.35,555.8,197.65,544.9,196.35Z"/><path class="cls-1" d="M625.3,196.35c-11.3-2.4-22-10.6-27-20.8-2.6-5.2-2.8-6.7-2.8-16.7,0-9.3.3-11.8,2.3-15.9,5-10.9,14.1-18.2,26.5-21.2,5.9-1.5,7.8-1.5,13.5-.5,13.4,2.5,25,11.5,29.2,22.8,9.3,24.9-6,50.1-32,52.6A38.28,38.28,0,0,1,625.3,196.35Zm15.4-11.3c11.2-4.2,17.7-13.7,17.6-26-.1-12-4.7-19.7-14.6-24.7-13.4-6.7-27.8-1.7-35.4,12.3-2.7,4.9-2.5,19.9.4,25.2C614.9,183.45,629.1,189.25,640.7,185.05Z"/><path class="cls-1" d="M789.5,196.05c-11.6-3-21.5-10.8-25.6-20.3a47.58,47.58,0,0,1-2.8-23.7,36.46,36.46,0,0,1,36.5-31.2c9.2.1,19,4.5,23.5,10.7l2.9,4.1V95.35h11v100H824v-12.5l-4.2,4.4A32.09,32.09,0,0,1,789.5,196.05Zm18.9-11.7c5.6-2.1,10-6.2,13.3-12.3,2.6-4.7,2.6-21.8-.1-26.7-4.5-8.5-11.5-13-21.3-13.8-15.9-1.2-28.3,10.7-28.3,27.3C772,179.05,789.6,191.35,808.4,184.35Z"/><path class="cls-1" d="M879,196.35a43,43,0,0,1-19.4-10.5c-11.3-11-14.4-29.3-7.3-44.4,6.4-13.6,24.9-23.1,39.4-20.2,13.4,2.7,22.3,9.3,28,20.8,3.5,7.1,3.8,8.2,3.8,16.8s-.3,9.7-3.9,16.9c-3,6.1-4.9,8.6-9.4,12.1C901,195.05,889,198.35,879,196.35ZM896.5,184c6.3-3,12-8.8,14-14.5,2.2-6.3,1.9-16.6-.6-22.1-11.8-26.2-49.8-17.9-49.9,10.9,0,8.6,1.6,13.4,6.4,18.8C874.3,186.05,886.3,188.85,896.5,184Z"/><path class="cls-1" d="M159,145.75V96.15l21.3.4c20.4.5,21.4.6,27.2,3.2,11.7,5.3,17.5,13.8,18.3,26.7.3,5.5,0,9.1-1.2,12.7-2.1,6.3-9,14.2-14.5,16.7-2.3,1-4.1,2.1-4.1,2.5s4.9,7.7,10.8,16.1,11.7,16.6,12.6,18.2l1.8,2.7h-6.3l-6.4-.1-12-17.4-12-17.4-11.7-.1H171v35H159Zm41.7,2.1c5.5-1.6,11.9-7.5,12.7-11.7,1.8-8.8.9-15.5-3-20.5-4.7-6.2-9.1-7.6-25.1-8.1l-14.3-.4v42.2h12.3C191.4,149.35,197.4,148.85,200.7,147.85Z"/><path class="cls-1" d="M683,158.85v-36.5h12v14.4l3-4.1c5.6-7.6,13.3-11.3,23.4-11.3,13,0,21.8,6.4,25.6,18.9,1.8,5.5,2,9.2,2,30.7v24.4H738.2l-.4-24.2c-.5-25.9-1-29.1-5.7-34.2-9.4-10.3-28-5.7-35.1,8.8-1.8,3.9-2,6.1-2,26.9v22.7H683Z"/><path class="cls-1" d="M1.2,182.15c-2.5-2.5-.3-9.2,4-12,4.1-2.7,13.1-5.5,23.3-7.4,14.1-2.6,51.8-2.7,65.4-.1,18.2,3.5,28.2,8.3,29.3,14.1,1.1,5.6-4.7,7.8-7.9,3-2.1-3.3-7.6-5.7-18.4-8.1-12.4-2.7-58.5-2.7-70.9.1-10.7,2.3-16.6,5.1-18.3,8.5C6.3,183.15,3.2,184.15,1.2,182.15Z"/><path class="cls-1" d="M1.2,164.15c-1.9-1.9-1.4-5.4,1.3-8.7,5.4-6.3,19.5-10.6,43.9-13.1,29.7-3.1,68.7,3.8,74.8,13.2,2.2,3.5,2.7,6.5,1.4,8.3-1.6,2.3-5.9,1.5-7.1-1.2-3.4-7.9-29.8-13-61.8-12-25.3.8-42.2,5.3-45.5,12A4.33,4.33,0,0,1,1.2,164.15Z"/><path class="cls-1" d="M30,138c-3.3-4.1,2-9.5,11.3-11.6,13.8-3.1,38.3-2,47.4,2,5,2.2,7.1,5.7,5.4,8.9-1.4,2.5-5.6,2.8-6.9.5-1.5-2.8-10.7-4.4-24.9-4.4-14.7,0-22.8,1.3-25.9,4.1C34,139.75,31.7,139.85,30,138Z"/><path class="cls-1" d="M30.2,123.15c-2-2-1.4-5.7,1.4-8.3,7.6-7,34.6-9.4,51.5-4.5,8.2,2.3,13.9,8.8,10.9,12.4-1.8,2.3-5.5,1.9-7.3-.7-2.2-3.3-7.7-4.8-20.9-5.4-16.1-.8-28,1.6-29.3,5.9C35.8,124.65,32,125,30.2,123.15Z"/><path class="cls-1" d="M30.2,108.15c-3.1-3.1.1-9.4,6.7-12.7,6.2-3.2,15-4.4,28.8-3.9,18,.7,26.9,4.4,28.8,11.9a4.36,4.36,0,0,1-1,4.3c-2.4,2.3-3.5,2-7-1.8-3.7-4.1-8.2-5.5-20-6.3-15-.9-27.9,2-30,7C35.4,109.15,32.1,110.05,30.2,108.15Z"/><path class="cls-1" d="M41,86.45c-3-5.6,4.8-10.9,17.3-11.8,14.2-1.1,25.2,3.4,24.5,10.1-.4,3.9-3.9,4.8-7.1,1.8-3.1-2.8-5.8-3.4-14.8-3.4-7.7.1-11.6,1.2-13.2,3.8C46.5,89.05,42.2,88.65,41,86.45Z"/><path class="cls-1" d="M42.2,72.15c-1.7-1.7-1.5-4.9.4-7.6,3.9-5.7,17.1-8.7,27.3-6.2,8.5,2,14.5,8.5,12,13.1-1.4,2.7-6.1,2.2-7.4-.8S68.7,66,62,65.85s-11.9,2-13.1,5.2C48,73.55,44.3,74.25,42.2,72.15Z"/><path class="cls-1" d="M43.8,57.25c-5.1-2.9.8-12.8,9.1-15.3l4.6-1.3.3-19.4C58,5,58.3,1.65,59.6.65a4.14,4.14,0,0,1,5.6,1.1c.4.6.8,9.6.8,19.9,0,17,.2,18.8,1.8,19.3,5.6,1.7,10.4,4.8,12.2,7.6,2.4,4,2.5,6.1.4,8.2-2.4,2.4-4.3,1.9-6.4-1.7-2.6-4.3-5.7-5.7-12.9-5.7-6.1,0-11.1,2.5-11.1,5.5a3.72,3.72,0,0,1-1.9,2.5C45.8,58.55,45.9,58.55,43.8,57.25Z"/></g></g></g></svg>